<svg id="Layer_1" data-name="Layer 1" xmlns="http://www.w3.org/2000/svg" viewBox="0 0 50.33 39.4"><defs><style>.cls-1{fill:#fff;}</style></defs><title>Derby Chat Bubble</title><path class="cls-1" d="M40.22,6.7a15.13,15.13,0,0,1,2.12,7.65c0,9-8.25,16.52-19.08,18.06a24.59,24.59,0,0,0,7.92,1.29,24.94,24.94,0,0,0,6.32-.82l4.58,6.52,0-8.29c5-2.59,8.22-6.89,8.22-11.77C50.33,13.87,46.24,9.12,40.22,6.7Z"/><path class="cls-1" d="M19.17,0C8.58,0,0,6.42,0,14.35c0,4.87,3.25,9.17,8.22,11.77l0,8.29,4.58-6.52a24.94,24.94,0,0,0,6.32.82c10.59,0,19.17-6.42,19.17-14.35S29.75,0,19.17,0Z"/></svg>