<svg id="Layer_1" data-name="Layer 1" xmlns="http://www.w3.org/2000/svg" viewBox="0 0 78.63 23.35"><defs><style>.cls-1{fill:#ebab38;}.cls-2{fill:#229246;}</style></defs><title>Derby Homepage Logo</title><path class="cls-1" d="M22.23,7a.42.42,0,0,0-.31-.14H19.6l.08-.65,0-.46s-.68-.88-4-1.34L11.62,9l4.29,4.77L15,15.88l-1.92-.55v-.91L10,13.79a4.87,4.87,0,0,0-.92,2,6.59,6.59,0,0,0,2.08,5.74l.07,0a10.56,10.56,0,0,0,5.08-4.48A13.65,13.65,0,0,0,18.89,15a13.4,13.4,0,0,0,3.44-7.65A.42.42,0,0,0,22.23,7Zm-4,7.4a9.64,9.64,0,0,1-1,.94c.24-.5.48-1,.7-1.6a26.09,26.09,0,0,0,1.55-6h1.95A12.49,12.49,0,0,1,18.28,14.44Z"/><path class="cls-1" d="M8.44,5.58l1.87,2L14.39,4.3c-.91-.08-2-.12-3.18-.12-7.29,0-8.52,1.61-8.52,1.61l0,.46.08.65H.42A.42.42,0,0,0,0,7.37a13.63,13.63,0,0,0,2.5,6.52,7.53,7.53,0,0,1,.3-1A12.83,12.83,0,0,1,.9,7.74h2a27.16,27.16,0,0,0,.72,3.53A8,8,0,0,1,8.9,8.16a2.64,2.64,0,0,1-.48-.93A3,3,0,0,1,8.44,5.58Z"/><path class="cls-1" d="M11.16,4.18h0Z"/><path class="cls-1" d="M11.18,21.58h.06l0,0h0Z"/><path class="cls-1" d="M19.7,0,14.39,4.3q.72.06,1.33.14Z"/><polygon class="cls-1" points="11.2 9.54 12.22 10.65 11.37 10.78 11.2 9.54"/><path class="cls-2" d="M36.13,10a5.65,5.65,0,0,1,.6,2.59,5.55,5.55,0,0,1-.6,2.58,5.31,5.31,0,0,1-1.73,1.93,6,6,0,0,1-2.06.83,12.55,12.55,0,0,1-2.68.25h-4V16.05h1.15V9.16H25.63V7h4q.8,0,1.45.06a10.9,10.9,0,0,1,1.22.17,6.23,6.23,0,0,1,1.12.35,6.06,6.06,0,0,1,.94.5A5,5,0,0,1,36.13,10Zm-6.18,6a4.42,4.42,0,0,0,2.93-.86,3.1,3.1,0,0,0,1-2.51,3.12,3.12,0,0,0-1-2.53,4.42,4.42,0,0,0-2.93-.86h-.2l-.22,0V16h.42Z"/><path class="cls-2" d="M46,10.25H43.81V9.16H41v2.21h2.56v2.14H41v2.54h2.78V14.91H46V18.2H37.13V16.05h1.15V9.16H37.13V7H46Z"/><path class="cls-2" d="M58.24,18.2H54.63L52.3,13.94H51.12V18.2H47.21V16.05h1.15V9.16H47.21V7h5.62A5.3,5.3,0,0,1,56,7.8a2.83,2.83,0,0,1,1.11,2.44,3,3,0,0,1-.61,1.94A3.51,3.51,0,0,1,55,13.3l1.59,2.76h1.62Zm-5.67-6.4a2.75,2.75,0,0,0,1-.15,1.3,1.3,0,0,0,.52-.36.83.83,0,0,0,.19-.42,3.29,3.29,0,0,0,0-.33,1.19,1.19,0,0,0-.43-1,2.55,2.55,0,0,0-1.53-.37H51.12V11.8Z"/><path class="cls-2" d="M67.73,12.81a2.72,2.72,0,0,1,.9,2.11,2.83,2.83,0,0,1-1.23,2.41,5.56,5.56,0,0,1-3.31.86H59.37V16.05h0V9.16H58.27V7h5.38a9.61,9.61,0,0,1,1.84.15,3.84,3.84,0,0,1,1.26.47,2.41,2.41,0,0,1,.85.91,3.08,3.08,0,0,1,.27,1.35,2.6,2.6,0,0,1-.68,1.84,2.34,2.34,0,0,1-.58.47,4.09,4.09,0,0,1,.61.27A2.94,2.94,0,0,1,67.73,12.81ZM62.18,9.16v2.91l.61-.12.59-.15.51-.19a3,3,0,0,0,.55-.31,1.66,1.66,0,0,0,.43-.45,1,1,0,0,0,.14-.63,1.62,1.62,0,0,0-.08-.39.77.77,0,0,0-.25-.34,1.41,1.41,0,0,0-.54-.24,4,4,0,0,0-1-.09ZM64.57,16a1.73,1.73,0,0,0,.59-.2,1.19,1.19,0,0,0,.43-.42,1.29,1.29,0,0,0,.17-.7,1.83,1.83,0,0,0-.06-.45.94.94,0,0,0-.24-.42,1.45,1.45,0,0,0-.53-.32,3,3,0,0,0-1-.15,3.09,3.09,0,0,0-.88.1,7.84,7.84,0,0,0-.93.3v2.31h1.75A4.23,4.23,0,0,0,64.57,16Z"/><path class="cls-2" d="M78.63,7V9.16H77.49l-2.74,5.3v1.6h1.1V18.2H70.79V16.05h1.15v-1.6l-2.59-5.3L68.2,7h3.17l2.29,4.89L76.11,7Z"/><path class="cls-2" d="M25.69,23.31V20.26h2v.55H26.32v.78h1.22v.55H26.32v1.19Z"/><path class="cls-2" d="M30,23.31l-.22-.66H28.61l-.22.66h-.63l1-3.05h.85l1,3.05Zm-.81-2.46h0l-.41,1.25h.85Z"/><path class="cls-2" d="M33,23.31l-1.25-1.94h0v1.94h-.61V20.26h.65L33,22.09h0V20.26h.61v3.05Z"/><path class="cls-2" d="M35,23.31V20.83H34.1v-.57H36.5v.57h-.89v2.48Z"/><path class="cls-2" d="M38.75,23.31l-.22-.66H37.34l-.22.66h-.63l1-3.05h.85l1,3.05Zm-.81-2.46h0l-.41,1.25h.85Z"/><path class="cls-2" d="M39.83,23.28v-.53q.55.05.93.05l.35,0a.41.41,0,0,0,.19-.07.19.19,0,0,0,.07-.11.8.8,0,0,0,0-.18.71.71,0,0,0,0-.19.14.14,0,0,0-.07-.09.52.52,0,0,0-.18,0L40.47,22a1,1,0,0,1-.45-.15.57.57,0,0,1-.22-.29,1.42,1.42,0,0,1-.06-.45,1,1,0,0,1,.14-.59.65.65,0,0,1,.38-.26,2.53,2.53,0,0,1,.62-.06,4.8,4.8,0,0,1,1,.09v.51a6.56,6.56,0,0,0-.87-.06,1.36,1.36,0,0,0-.53.07.16.16,0,0,0-.09.09.62.62,0,0,0,0,.17.71.71,0,0,0,0,.19.13.13,0,0,0,.08.08l.2,0,.7.08a1.11,1.11,0,0,1,.34.08.44.44,0,0,1,.21.2,1.26,1.26,0,0,1,.11.59,1.22,1.22,0,0,1-.13.63.61.61,0,0,1-.36.28,2.19,2.19,0,0,1-.59.06A7.52,7.52,0,0,1,39.83,23.28Z"/><path class="cls-2" d="M43.36,23.31V22.24l-1-2H43l.7,1.34h0l.69-1.34H45l-1,2v1.07Z"/><path class="cls-2" d="M48.92,23.31l-.55-2h0l-.55,2H47l-.75-3.05h.63l.54,2.28h0L48,20.26h.65l.6,2.28h0l.51-2.28h.63l-.75,3.05Z"/><path class="cls-2" d="M50.9,23.31V20.26h.63v3.05Z"/><path class="cls-2" d="M54.17,23.31l-1.25-1.94h0v1.94h-.61V20.26h.65l1.19,1.83h0V20.26h.61v3.05Z"/><path class="cls-2" d="M55.49,23.28v-.53q.55.05.93.05l.35,0a.41.41,0,0,0,.19-.07.19.19,0,0,0,.07-.11.8.8,0,0,0,0-.18.71.71,0,0,0,0-.19.14.14,0,0,0-.07-.09.52.52,0,0,0-.18,0L56.13,22a1,1,0,0,1-.45-.15.57.57,0,0,1-.22-.29,1.42,1.42,0,0,1-.06-.45,1,1,0,0,1,.14-.59.65.65,0,0,1,.38-.26,2.53,2.53,0,0,1,.62-.06,4.8,4.8,0,0,1,1,.09v.51a6.56,6.56,0,0,0-.87-.06,1.36,1.36,0,0,0-.53.07.16.16,0,0,0-.09.09.62.62,0,0,0,0,.17.71.71,0,0,0,0,.19.13.13,0,0,0,.08.08l.2,0,.7.08a1.11,1.11,0,0,1,.34.08.44.44,0,0,1,.21.2,1.26,1.26,0,0,1,.11.59,1.22,1.22,0,0,1-.13.63.61.61,0,0,1-.36.28,2.19,2.19,0,0,1-.59.06A7.52,7.52,0,0,1,55.49,23.28Z"/><path class="cls-2" d="M59.53,23.31V20.26h.63v2.48h1.29v.57Z"/><path class="cls-2" d="M61.88,23.31V20.26H64v.55H62.51v.69h1.26V22H62.51v.72H64v.55Z"/><path class="cls-2" d="M66.59,23.31l-.22-.66H65.18l-.22.66h-.63l1-3.05h.85l1,3.05Zm-.81-2.46h0l-.41,1.25h.85Z"/><path class="cls-2" d="M68.78,22.09v-.52h1.11v1.68l-.52.07-.5,0a2.25,2.25,0,0,1-.85-.12.7.7,0,0,1-.38-.45,3.42,3.42,0,0,1-.11-1,3.28,3.28,0,0,1,.11-1,.75.75,0,0,1,.39-.46,2,2,0,0,1,.85-.14l.4,0,.48.06.13,0v.51l-.16,0-.6,0a2.85,2.85,0,0,0-.65,0,.35.35,0,0,0-.24.25,2.7,2.7,0,0,0-.06.72,3.22,3.22,0,0,0,0,.67.4.4,0,0,0,.2.28,1.15,1.15,0,0,0,.49.08h.4v-.71Z"/><path class="cls-2" d="M73,20.26v1.69a3.66,3.66,0,0,1-.08.89.59.59,0,0,1-.33.4,2.82,2.82,0,0,1-1.6,0,.59.59,0,0,1-.33-.4,3.56,3.56,0,0,1-.08-.89V20.26h.63v1.85a2.41,2.41,0,0,0,0,.48.25.25,0,0,0,.15.18,1.66,1.66,0,0,0,.8,0,.24.24,0,0,0,.14-.18,2.6,2.6,0,0,0,0-.48V20.26Z"/><path class="cls-2" d="M73.74,23.31V20.26h2.1v.55H74.37v.69h1.26V22H74.37v.72h1.47v.55Z"/></svg>