<svg id="Layer_1" data-name="Layer 1" xmlns="http://www.w3.org/2000/svg" viewBox="0 0 400 400"><defs><style>.cls-1{fill:#229246;}</style></defs><title>Artboard 1</title><path class="cls-1" d="M397.07,133.53a7.51,7.51,0,0,0-5.59-2.49H350.23c.47-3.92.92-7.8,1.34-11.54.39-3.47.69-6.33.88-8.22,0,0-12.15-15.75-71.48-23.92l-73,81.51,76.39,85-15.71,37.24-34.28-9.71V265.17l-55.71-11.33a86.73,86.73,0,0,0-16.31,35.74c-6.8,34.3,7.9,72.81,37.1,102.22l1.17.46c14-5.35,54.23-22.9,90.53-79.73,16.5-10.44,33.59-23.16,46.48-36.93,45.83-49,58.09-106.38,61.3-136.24A7.49,7.49,0,0,0,397.07,133.53ZM326.67,265.33a171.77,171.77,0,0,1-18.55,16.81c4.32-8.83,8.54-18.15,12.52-28.43A464.66,464.66,0,0,0,348.3,146.07h34.65C378.62,175.54,365.59,223.73,326.67,265.33Z"/><path class="cls-1" d="M151.41,107.58l33.26,36.08,72.67-58.89c-16.14-1.36-34.86-2.2-56.7-2.22-129.83.11-151.81,28.72-151.81,28.72.19,1.89.49,4.75.88,8.22.42,3.74.87,7.61,1.35,11.54H8.63a7.52,7.52,0,0,0-7.48,8.33c2.8,25.84,12.41,72.3,44.61,116.06a134.2,134.2,0,0,1,5.43-18.57c-22-33.64-30.65-67.87-34-90.79H53a483.74,483.74,0,0,0,12.82,62.79c32.51-46.44,86.81-54.42,93.76-55.33A47,47,0,0,1,151.06,137,52.57,52.57,0,0,1,151.41,107.58Z"/><path class="cls-1" d="M199.9,82.55h0Z"/><path class="cls-1" d="M200.25,392.55h1.14l-.74-.29-.49.19Z"/><path class="cls-1" d="M352,8.18,257.44,84.77q12.9,1.09,23.63,2.58Z"/></svg>