<svg id="Layer_1" data-name="Layer 1" xmlns="http://www.w3.org/2000/svg" viewBox="0 0 76.87 86.22"><defs><style>.cls-1{fill:#48311a;}.cls-2{fill:#fff;}</style></defs><title>Foam Finger Icon</title><path class="cls-1" d="M47.07,77.3c.37-1,.71-2,1.11-2.93a25.61,25.61,0,0,1,2.46-4.2,17,17,0,0,0,2.76-5.69.47.47,0,0,0,.12-.24A27.85,27.85,0,0,0,54,60.77c2.58-5.3,4.85-10.76,7.42-16.08,1.34-2.78,2.75-5.52,4-8.34s2.39-5.67,3.6-8.51,2.47-5.51,3.85-8.21c.79-1.54,1.59-3.07,2.29-4.64,1.26-2.83,2.36-6.13,1.34-9.2S71.9.65,68.76.11a8,8,0,0,0-7.52,3.15c-2.07,2.47-3.3,5.58-4.54,8.52-1.08,2.56-2.16,5.1-3.38,7.6-.63,1.28-1.3,2.54-2,3.81a11,11,0,0,0-1.12,2.39,6.41,6.41,0,0,0-4.3-4.12,8.18,8.18,0,0,0-7.47.83A6.87,6.87,0,0,0,36.8,24a5.78,5.78,0,0,0-5.43-4.81A6.15,6.15,0,0,0,25,23.29c-2.44-1.1-5.69-1.87-7.93,0C15,25,14.55,28,14.4,30.68,13,33,11.35,35.21,9.87,37.51a29.38,29.38,0,0,0-3.62,8.33C5.42,48.91,4.9,52.06,4,55.12S1.62,61,.44,63.93c-.13.2-.25.41-.38.61a.48.48,0,0,0,0,.48c2.47,4.65,7.49,6.62,12.19,8.31l1.47.53a84.65,84.65,0,0,1,8.43,3.43A62.81,62.81,0,0,1,29,81.64c3.22,2.61,7.53,5.81,11.92,4.1C44.35,84.41,45.89,80.45,47.07,77.3Z"/><path class="cls-2" d="M21.53,54.47l-2.65-1.35,3.69-5.23L20,46.56,16.3,51.8l-2.68-1.37,3.67-5.25-3.21-1.63L15.4,41,19,42.78l1.59-2.34-3.31-1.69,1.34-2.63L22.25,38l3.37-4.87,2.73,1.39L25,39.37l2.58,1.31,3.37-4.87,2.65,1.35L30.18,42l3.1,1.58-1.34,2.63L28.5,44.48l-1.64,2.31,3.23,1.65L28.77,51l-3.55-1.81Zm2.71-9,1.61-2.32-2.6-1.33-1.64,2.31Z"/><path class="cls-2" d="M45.2,38.89l7.22,3.68-10.71,21,2.37,1.21-2.82,5.53L28.89,64,31.7,58.5l2.78,1.42,7.45-14.63L37.8,46.54l-.17-5.63Z"/></svg>