<svg id="Layer_1" data-name="Layer 1" xmlns="http://www.w3.org/2000/svg" viewBox="0 0 173.04 77.36"><defs><style>.cls-1{fill:#48311a;}.cls-2{fill:#fff;}</style></defs><title>Pennant Icon</title><polygon class="cls-1" points="173.04 0 0 16.9 17.34 77.36 173.04 0"/><path class="cls-2" d="M13.55,24.29c1.84-.53,4.34-.49,4.7.78l.52,1.82-2.69.77-.21-.73c-.1-.36-.64-.39-1.4-.17-1.62.47-2.32,1.47-1.83,3.2a2.69,2.69,0,0,0,3.57,2.12c.52-.15,1.25-.46,1.14-.86l-.11-.39-1.46.42-.62-2.16,4.15-1.19,1,3.59c.43,1.49-2.39,2.83-3.84,3.24A5.42,5.42,0,0,1,9.55,31C8.68,27.93,10.37,25.2,13.55,24.29Z"/><path class="cls-2" d="M24.24,21.22a5.32,5.32,0,0,1,6.83,3.61,5.38,5.38,0,0,1-3.84,6.81,5.38,5.38,0,0,1-6.87-3.74A5.32,5.32,0,0,1,24.24,21.22ZM26.48,29a2.55,2.55,0,0,0,1.47-3.3,2.47,2.47,0,0,0-3-1.9A2.47,2.47,0,0,0,23.48,27,2.55,2.55,0,0,0,26.48,29Z"/><path class="cls-2" d="M19,50.2l1.78-.51-2.67-9.33-1.1.32.65,2.25-4.22,1.21L11.68,38l15.68-4.5,1.77,6.16-4.2,1.2-.64-2.25-1.1.32,2.67,9.33,1.78-.51,1,3.61-8.63,2.47Z"/><path class="cls-2" d="M32.78,46.26l1.78-.51L31.8,36.11,30,36.62,29,33l13.36-3.83,1.57,5.46-4.22,1.21-.44-1.55L37,35l.71,2.49,4.45-1.28,1.13,3.94-4.45,1.28.75,2.6,2.53-.73-.43-1.5,4.22-1.21L47.41,46l-13.59,3.9Z"/><path class="cls-2" d="M47.65,42l1.27-.36.45-14.46,5.79-1.66,8,12,1.29-.37,1,3.61L57.89,43l-1-3.61L58.17,39l-.77-1.45-3.59,1,.12,1.64,1.31-.38,1,3.61-7.59,2.18Zm8-7.58-1.2-2.17c-.64-1.16-1.07-2.13-1.07-2.13l-.12,0a20.19,20.19,0,0,1,.22,2.37l.1,2.48Z"/><path class="cls-2" d="M65.54,36.87l1.73-.5L65.33,26.5,63.55,27l-1-3.61,7.71-2.21,4.06,6.9c.65,1.11,1.13,2.08,1.13,2.08h0s-.1-1.06-.12-2.37l-.21-8,7.71-2.21,1,3.61-1.78.51,3.58,9.4,1.74-.5,1,3.61-8.06,2.31-1-3.61,1.38-.4-1.65-4.85a15.66,15.66,0,0,1-.49-2.14l-.09,0s.09,1.27.09,2.16l.15,6-4.2,1.2-3.06-5.19c-.5-.77-1.07-1.87-1.07-1.87l-.09,0A17.35,17.35,0,0,1,71,30l1.2,5,1.38-.4,1,3.61-8.06,2.31Z"/><path class="cls-2" d="M85.67,16.76l5.09-1.46,2.77,11.51L89.4,28Zm4,12.67L94,28.19l1.17,4.08-4.34,1.24Z"/></svg>