<svg id="Layer_1" data-name="Layer 1" xmlns="http://www.w3.org/2000/svg" viewBox="0 0 74.18 74.18"><defs><style>.cls-1{fill:#392007;}</style></defs><title>sports_icon_baseball</title><path class="cls-1" d="M0,37.09A37,37,0,0,0,14.89,66.75c.9-2.1,1.71-4.23,2.41-6.39l-3.18,1.56-.88-1.79,4.84-2.38c.48-1.68.9-3.37,1.26-5.07l-3,1.89-1.06-1.69L19.86,50c.3-1.71.52-3.43.7-5.15L17.78,47l-1.23-1.57,4.27-3.35c.11-1.72.15-3.45.14-5.19l-2.53,2.46L17,38l3.87-3.76c-.07-1.73-.21-3.45-.39-5.18l-2.25,2.69-1.54-1.28,3.44-4.12q-.37-2.56-.92-5.12l-1.95,2.9L15.63,23l3-4.44c-.17-.69-.33-1.37-.53-2.06-.28-1-.59-2-.91-3l-1.63,3.09-1.77-.94L16.27,11c-.43-1.19-.9-2.36-1.39-3.51A37,37,0,0,0,0,37.09Z"/><path class="cls-1" d="M74.18,37.09A37,37,0,0,0,59.3,7.44c-.49,1.16-1,2.33-1.39,3.51l2.5,4.73-1.77.94L57,13.53c-.32,1-.63,2-.91,3-.19.68-.35,1.37-.53,2.06l3,4.44-1.66,1.12-1.95-2.9q-.55,2.55-.92,5.12l3.44,4.12-1.54,1.28L53.68,29c-.19,1.72-.32,3.45-.39,5.18L57.16,38l-1.39,1.44-2.53-2.46c0,1.73,0,3.46.14,5.19l4.27,3.35L56.41,47l-2.79-2.19c.18,1.73.4,3.44.7,5.15l4.59,2.88-1.06,1.69-3-1.89c.36,1.7.78,3.39,1.26,5.07l4.84,2.37-.88,1.79-3.18-1.56c.7,2.16,1.51,4.28,2.41,6.38A37,37,0,0,0,74.18,37.09Z"/><path class="cls-1" d="M52.76,61.68l-1.72,3-1.74-1L52,59c-.52-1.8-1-3.62-1.36-5.45l-2,2.84L47,55.26l3.13-4.4c-.32-1.85-.57-3.71-.76-5.58L47,47.9l-1.5-1.32,3.56-4c-.13-1.88-.16-3.77-.16-5.65l-2.58,2.38L45,37.79l4-3.66c.07-1.88.22-3.75.43-5.63l-2.83,2.1L45.36,29l4.38-3.25q.4-2.78,1-5.54L47.69,22l-1-1.72,4.71-2.79c.18-.73.36-1.46.56-2.19.3-1.08.64-2.14,1-3.2l-3.22,1.47-.83-1.82,5-2.28C54.4,8,55,6.48,55.65,5A36.87,36.87,0,0,0,18.53,5c.64,1.47,1.25,3,1.81,4.48l5,2.28-.83,1.82-3.22-1.47c.35,1.06.68,2.12,1,3.2.21.73.38,1.46.56,2.19l4.71,2.79L26.5,22l-3.05-1.8q.6,2.76,1,5.54L28.82,29,27.63,30.6l-2.83-2.1c.21,1.88.35,3.75.43,5.63l4,3.67-1.35,1.47-2.58-2.38c0,1.89,0,3.78-.16,5.66l3.56,4-1.5,1.32-2.31-2.62c-.19,1.87-.44,3.73-.76,5.58l3.13,4.4-1.63,1.16-2-2.84c-.39,1.83-.84,3.64-1.36,5.45l2.66,4.72-1.74,1-1.72-3q-1.23,3.8-2.86,7.5a36.88,36.88,0,0,0,37.07,0Q54,65.49,52.76,61.68Z"/></svg>