<svg id="Layer_1" data-name="Layer 1" xmlns="http://www.w3.org/2000/svg" viewBox="0 0 74.18 74.12"><defs><style>.cls-1{fill:#392007;}</style></defs><title>Artboard 1</title><path class="cls-1" d="M33.84,17.66a89.19,89.19,0,0,0-10.42,1l-.06.12-.46.87c-4.06,7.61-14.65,27.46-8,47.08a36.89,36.89,0,0,0,19,7.27Z"/><path class="cls-1" d="M49.25,10.78a13.79,13.79,0,0,1,5.6-6.27A36.84,36.84,0,0,0,38.3,0V13.16a94.18,94.18,0,0,1,10.36.7A8.78,8.78,0,0,1,49.25,10.78Z"/><path class="cls-1" d="M53.4,12.41a4.36,4.36,0,0,0-.27,2.12,82.94,82.94,0,0,1,16.41,4.59A37.36,37.36,0,0,0,59.06,7.2C56.94,8.3,54.29,10.13,53.4,12.41Z"/><path class="cls-1" d="M49.91,18.77c0-.09-.08-.18-.13-.27a89.62,89.62,0,0,0-11.48-.89V74.12a36.86,36.86,0,0,0,19.79-6.51c7.24-19.91-3.6-40.24-7.72-48Z"/><path class="cls-1" d="M20.11,14.69a4.38,4.38,0,0,0-.25-2.29C19,10.3,16.75,8.6,14.75,7.48A37.36,37.36,0,0,0,4.65,19.11,82.41,82.41,0,0,1,20.11,14.69Z"/><path class="cls-1" d="M55.33,19.49c4.34,8.29,12.27,25.07,8.83,42.9a37,37,0,0,0,8.05-37.24A73.75,73.75,0,0,0,55.33,19.49Z"/><path class="cls-1" d="M17.82,19.71A73.15,73.15,0,0,0,2,25.15a37,37,0,0,0,6.92,36C6.07,43.91,13.56,27.87,17.82,19.71Z"/><path class="cls-1" d="M24.61,14c3-.41,6.12-.67,9.23-.77V.12a36.81,36.81,0,0,0-15,4.67,13.44,13.44,0,0,1,5.17,6A8.78,8.78,0,0,1,24.61,14Z"/></svg>