<svg id="Layer_1" data-name="Layer 1" xmlns="http://www.w3.org/2000/svg" viewBox="0 0 57.62 93.17"><defs><style>.cls-1{fill:#392007;}</style></defs><title>Artboard 1</title><path class="cls-1" d="M29.8,93.17A52.09,52.09,0,0,0,27.82,0a52.09,52.09,0,0,0,2,93.17Zm8.35-29q.31-1.2.58-2.42H36.12q.19-1.11.36-2.22h2.71q.23-1.23.42-2.46H36.8q.13-1.11.23-2.22h2.89q.15-1.25.25-2.5H37.22c0-.74.09-1.48.11-2.22h3q.06-1.26.08-2.51h-3c0-.74,0-1.48,0-2.22h3.05q0-1.26-.08-2.51H37.26c0-.74-.08-1.48-.14-2.22h3.05q-.1-1.25-.25-2.5h-3c-.08-.74-.18-1.48-.28-2.22h3q-.19-1.23-.42-2.46h-3q-.18-1.11-.4-2.22h2.89q-.27-1.21-.58-2.42H35.34c-.17-.74-.33-1.48-.52-2.22h7.78c.19.74.35,1.48.52,2.22h-2.6q.3,1.2.56,2.42h2.54q.21,1.11.4,2.22h-2.5q.22,1.23.41,2.46H44.4c.1.74.2,1.48.28,2.22H42.23q.14,1.25.25,2.5H44.9c.06.74.1,1.48.14,2.22H42.62q.06,1.26.08,2.51h2.44c0,.74,0,1.48,0,2.22H42.7q0,1.26-.08,2.51h2.5c0,.74-.07,1.48-.11,2.22H42.47q-.1,1.25-.25,2.5h2.58q-.1,1.11-.23,2.22H41.94q-.18,1.23-.41,2.46h2.73q-.16,1.11-.36,2.22H41.09q-.26,1.21-.56,2.42h2.78v.7c-.11.51-.23,1-.35,1.53H35.17c.17-.74.34-1.48.49-2.22Z"/></svg>