<svg id="Layer_1" data-name="Layer 1" xmlns="http://www.w3.org/2000/svg" viewBox="0 0 74.18 98.93"><defs><style>.cls-1{fill:#392007;}</style></defs><title>sport_icon_ncaa_basketball</title><path class="cls-1" d="M23.36,43.58l-.46.87c-4.06,7.61-14.65,27.46-8,47.08a36.89,36.89,0,0,0,19,7.27V42.47a89.19,89.19,0,0,0-10.42,1Z"/><path class="cls-1" d="M51.87,29.29A2.57,2.57,0,0,1,52,29c-3.63,2.21-9.81,2.69-13.68,2.76V38a94.18,94.18,0,0,1,10.36.7,8.78,8.78,0,0,1,.6-3.08,11.53,11.53,0,0,1,2.77-4A3.69,3.69,0,0,1,51.87,29.29Z"/><path class="cls-1" d="M61.68,34.14a18.48,18.48,0,0,1-2.51.21H59a18.54,18.54,0,0,1-3.13-.29,8.16,8.16,0,0,0-2.51,3.16,4.36,4.36,0,0,0-.27,2.12,82.94,82.94,0,0,1,16.41,4.59A37.33,37.33,0,0,0,61.68,34.14Z"/><path class="cls-1" d="M49.91,43.58c0-.09-.08-.18-.13-.27a89.62,89.62,0,0,0-11.48-.89V98.93a36.86,36.86,0,0,0,19.79-6.51c7.24-19.91-3.6-40.24-7.72-48Z"/><path class="cls-1" d="M19.86,37.21c-.82-2.1-3.12-3.81-5.12-4.92A37.36,37.36,0,0,0,4.65,43.92,82.41,82.41,0,0,1,20.11,39.5,4.38,4.38,0,0,0,19.86,37.21Z"/><path class="cls-1" d="M74.18,61.87a36.92,36.92,0,0,0-2-11.91,73.75,73.75,0,0,0-16.88-5.66c4.34,8.29,12.27,25.07,8.83,42.9A37,37,0,0,0,74.18,61.87Z"/><path class="cls-1" d="M17.82,44.51A73.15,73.15,0,0,0,2,50a37,37,0,0,0,6.92,36C6.07,68.72,13.56,52.67,17.82,44.51Z"/><path class="cls-1" d="M21.44,28.27c-.88.41-1.75.85-2.6,1.33a13.44,13.44,0,0,1,5.17,6,8.78,8.78,0,0,1,.6,3.2c3-.41,6.12-.67,9.23-.77V31.66C29.66,31.42,24.27,30.63,21.44,28.27Z"/><path class="cls-1" d="M63.77,12.26,37.56.08a.85.85,0,0,0-.72,0L10.41,12.78a.85.85,0,0,0,0,1.52l12,6.15v4c0,3.07,7.68,4.47,14.81,4.47S52,27.48,52,24.41V20l6.08-3.26.09,7.32A40.53,40.53,0,0,0,54.66,30a.85.85,0,0,0,.82,1.06,15.62,15.62,0,0,0,7.13,0,1,1,0,0,0,.67-.33.85.85,0,0,0,.15-.73A49.57,49.57,0,0,0,60,24.12V15.75l3.78-2a.85.85,0,0,0,0-1.52Z"/></svg>