<svg id="Layer_1" data-name="Layer 1" xmlns="http://www.w3.org/2000/svg" viewBox="0 0 74.18 74.18"><defs><style>.cls-1{fill:#fff;}</style></defs><title>Artboard 1</title><path class="cls-1" d="M52.34,64l-.51-.25c-.62-.31-1.44-.75-2.43-1.3l-1.62-.92L47,61.1l-1.08-.65L47,58.65l2.15,1.29,1.26.71,1.28.7c-.37-1.71-.7-3.52-1-5.4-.63-.4-1.7-1.08-2.78-1.8L45.7,52.61l-1-.72,1.21-1.71,1,.72,2.22,1.52,1.23.81c-.22-1.76-.41-3.58-.55-5.44l-.61-.44c-.58-.43-1.31-1-2-1.53L45,44.13l-1-.78,1.32-1.63,1,.78,2.12,1.66,1.17.89c-.1-1.79-.17-3.61-.21-5.46L48.69,39c-.52-.43-1.17-1-1.8-1.53l-2-1.8-.92-.83,1.4-1.56.92.83,2,1.78,1.11.95c0-1.84,0-3.66.12-5.45C49,30.87,48,30,47.12,29.12c-1.39-1.37-2.8-2.81-2.81-2.83l1.51-1.46s1.4,1.44,2.77,2.79l1.06,1q.17-2.79.45-5.44l-.54-.58c-.49-.53-1.1-1.18-1.69-1.86s-1.23-1.4-1.8-2.07-.81-1-.81-1l1.64-1.31s.31.38.78.94,1.2,1.4,1.77,2c.33.38.66.74,1,1.09.24-1.88.53-3.69.85-5.42l-.36-.44c-.48-.61-1.08-1.41-1.66-2.19s-1-1.47-1.45-2.07l-.14-.21-.7-1.07L48.7,7.91l.84,1.26c.39.58.88,1.3,1.4,2l.88,1.18a54.62,54.62,0,0,1,2.41-8.13,37,37,0,0,0-33-.64,52.81,52.81,0,0,1,2.66,8.78l.88-1.18c.52-.7,1-1.42,1.4-2L27,7.91l1.75,1.16-.85,1.28c-.4.6-.91,1.34-1.46,2.08S25.29,14,24.82,14.59l-.36.45c.32,1.73.61,3.54.85,5.42.32-.34.65-.71,1-1.09.57-.64,1.21-1.39,1.78-2s.77-.93.77-.93l1.64,1.31s-.32.4-.81,1-1.23,1.43-1.8,2.08-1.2,1.33-1.69,1.85l-.54.58c.19,1.77.34,3.59.45,5.44l1.06-1c1.37-1.34,2.75-2.77,2.77-2.78l1.51,1.46S30,27.75,28.6,29.12c-.91.89-1.84,1.76-2.38,2.26.07,1.79.11,3.61.12,5.45l1.11-.95,2-1.78.92-.83,1.4,1.56-.92.83-2,1.8C28.19,38,27.54,38.56,27,39l-.71.59c0,1.85-.1,3.67-.21,5.46l1.16-.88,2.13-1.67,1-.77,1.32,1.63-1,.78-2.15,1.69c-.71.56-1.44,1.09-2,1.52l-.61.44c-.15,1.86-.33,3.68-.55,5.44l1.23-.81,2.22-1.52,1-.72L31,51.88l-1,.72-2.26,1.55c-1.07.72-2.15,1.4-2.78,1.8-.29,1.88-.61,3.69-1,5.4l1.29-.7,1.57-.9.77-.46,1.06-.64,1.09,1.79-2.17,1.3-1.29.73c-1,.55-1.81,1-2.43,1.3l-.51.25a48.18,48.18,0,0,1-2.14,6.58,37,37,0,0,0,33-.64A50.15,50.15,0,0,1,52.34,64Z"/><path class="cls-1" d="M21.09,63.49,20.76,63c-.38-.51-.95-1.24-1.6-2.05l-.88-1.08L17.49,59l-.77-.88,1.58-1.38.78.89.8.94.9,1.1.93,1.17c.35-1.65.67-3.39.95-5.22-.49-.54-1.32-1.46-2.16-2.34-.58-.6-1.24-1.28-1.83-1.87l-.84-.84,1.48-1.49.84.84c.35.35,1.06,1.07,1.87,1.91l1,1.08q.32-2.57.54-5.3L23,47.1c-.5-.48-1.13-1.08-1.78-1.67l-2-1.76-.89-.78,1.38-1.58.9.79,2,1.79,1.09,1c.1-1.74.17-3.52.2-5.33l-.7-.6c-.5-.42-1.12-1-1.75-1.46l-2.06-1.65-.94-.73,1.29-1.65.94.74,2.08,1.67,1.14.95c0-1.8,0-3.58-.11-5.33-.58-.44-1.57-1.19-2.56-1.9-1.54-1.11-3.11-2.17-3.12-2.18l1.18-1.73s1.6,1.09,3.17,2.22l1.2.88c-.11-1.81-.26-3.58-.44-5.31L22.66,23c-.58-.38-1.31-.85-2.05-1.31s-1.53-.93-2.24-1.35l-1-.58,1-1.84,1.06.6c.73.43,1.56.93,2.28,1.37l1.26.79c-.24-1.82-.51-3.57-.82-5.24l-.49-.27c-.64-.34-1.49-.78-2.32-1.2s-1.53-.73-2.15-1L17,12.94l-1.06-.46.83-1.92,1.27.55c.64.29,1.44.64,2.24,1l1.32.67a50.4,50.4,0,0,0-2.47-8.18,37.07,37.07,0,0,0,0,64.88A45.75,45.75,0,0,0,21.09,63.49Z"/><path class="cls-1" d="M56.3,5.37a52.55,52.55,0,0,0-2.19,7.46l1.33-.68c.79-.4,1.59-.76,2.23-1l1.27-.55.83,1.92L58.53,13c-.62.28-1.4.62-2.14,1s-1.69.86-2.34,1.21l-.48.27c-.31,1.67-.58,3.42-.82,5.24l1.26-.8c1-.61,1.84-1.12,2.27-1.37L57.34,18l1,1.84-1,.58c-.71.42-1.52.91-2.23,1.35s-1.47.93-2.05,1.31l-.62.41c-.18,1.72-.33,3.5-.44,5.31l1.19-.88c1.57-1.13,3.16-2.21,3.17-2.22l1.18,1.73S56,28.48,54.41,29.59c-1,.71-2,1.46-2.56,1.9-.07,1.75-.11,3.53-.11,5.33l1.14-.95L55,34.21l.94-.74,1.29,1.65-.94.74-2.05,1.65c-.63.51-1.25,1-1.75,1.46l-.7.6c0,1.8.1,3.58.2,5.33l1.09-1,2-1.78.91-.79,1.38,1.58-.9.79-1.95,1.76c-.65.59-1.28,1.19-1.78,1.68l-.54.52q.21,2.72.54,5.3l1-1.08c.81-.84,1.52-1.56,1.87-1.91l.85-.84,1.48,1.49-.85.84c-.58.58-1.25,1.27-1.83,1.87-.83.88-1.67,1.79-2.16,2.33.28,1.82.59,3.57.95,5.22l.93-1.17.89-1.09.81-.95.79-.9L59,58.11l-.78.89-.79.92L56.55,61c-.65.81-1.22,1.53-1.6,2l-.33.45a48,48,0,0,0,1.67,5.32,37.07,37.07,0,0,0,0-63.44Z"/></svg>