<svg id="Layer_1" data-name="Layer 1" xmlns="http://www.w3.org/2000/svg" viewBox="0 0 74.18 74.15"><defs><style>.cls-1{fill:#fff;}</style></defs><title>Artboard 1</title><path class="cls-1" d="M30.83,8.9a98.18,98.18,0,0,0-6.16,9l.27.33c4.39,5.31,9,10.83,13.49,16.2l6.77-1.24,4.34-.79L51,32.09l4.25-.76L57.09,31l2.86-.5c.33-4.2.46-8.44.38-12.63-.06-3.39-.27-6.81-.6-10.2A36.89,36.89,0,0,0,38.62,0,98,98,0,0,0,30.83,8.9Z"/><path class="cls-1" d="M65,17.81A134.8,134.8,0,0,1,64.52,32a105.84,105.84,0,0,1,5.61,11.42c.75,1.8,1.45,3.63,2.1,5.47A37,37,0,0,0,64.8,12.43C64.9,14.22,65,16,65,17.81Z"/><path class="cls-1" d="M8.33,22a108,108,0,0,1,11.88-5.75A102.76,102.76,0,0,1,27.12,6c1.51-2,3.1-3.85,4.76-5.7A37.2,37.2,0,0,0,1.67,26.05C3.84,24.61,6.07,23.23,8.33,22Z"/><path class="cls-1" d="M16,56.45A115.27,115.27,0,0,0,27.84,58c2.24-6.84,4.66-13.81,7-20.56C30.28,32,25.57,26.31,21.11,20.9A102.05,102.05,0,0,0,.26,32.74,37.29,37.29,0,0,0,0,37.05,36.86,36.86,0,0,0,3.86,53.5,115.49,115.49,0,0,0,16,56.45Z"/><path class="cls-1" d="M38.57,69.66A109.4,109.4,0,0,1,28.5,62.73a120.3,120.3,0,0,1-13.3-1.67c-2.58-.48-5.16-1-7.72-1.7A37,37,0,0,0,45,73.28C42.83,72.14,40.67,70.93,38.57,69.66Z"/><path class="cls-1" d="M65.81,45.24A101.2,101.2,0,0,0,60.9,35.12l-2.67.46L56,36l-3.91.7L50.43,37,39.28,39c-2.37,6.81-4.81,13.82-7.06,20.69a105.07,105.07,0,0,0,8.78,6,104.8,104.8,0,0,0,10.51,5.58A37.32,37.32,0,0,0,69.38,55.28,101.34,101.34,0,0,0,65.81,45.24Z"/></svg>