<svg id="Layer_1" data-name="Layer 1" xmlns="http://www.w3.org/2000/svg" viewBox="0 0 57.62 110.34"><defs><style>.cls-1{fill:#fff;}</style></defs><title>sport_icon_ncaa_football</title><path class="cls-1" d="M48,34.12c-.42-.06-.84-.11-1.25-.21a3.76,3.76,0,0,1-2.5-1.42,3.71,3.71,0,0,1-.67-3.2A2.54,2.54,0,0,1,43.7,29c-4,2.43-11.08,2.77-14.77,2.77-3.95,0-11.77-.4-15.55-3.31A52.05,52.05,0,0,0,29.8,110.34a52.1,52.1,0,0,0,27.81-47.2A51.75,51.75,0,0,0,48,34.12ZM45.12,67.34c0,.74-.07,1.48-.11,2.22H42.47q-.1,1.25-.25,2.5h2.58q-.1,1.11-.23,2.22H41.94q-.18,1.23-.41,2.46h2.73q-.16,1.11-.36,2.22H41.09q-.26,1.21-.56,2.42h2.78v.7c-.11.51-.23,1-.35,1.53H35.17c.17-.74.34-1.48.49-2.22h2.49q.31-1.2.58-2.42H36.12q.19-1.11.36-2.22h2.71q.23-1.23.42-2.46H36.8q.13-1.11.23-2.22h2.89q.15-1.25.25-2.5H37.22c0-.74.09-1.48.11-2.22h3q.06-1.26.08-2.51h-3c0-.74,0-1.48,0-2.22h3.05q0-1.26-.08-2.51H37.26c0-.74-.08-1.48-.14-2.22h3.05q-.1-1.25-.25-2.5h-3c-.08-.74-.18-1.48-.28-2.22h3q-.19-1.23-.42-2.46h-3q-.18-1.11-.4-2.22h2.89q-.27-1.21-.58-2.42H35.34c-.17-.74-.33-1.48-.52-2.22h7.78c.19.74.35,1.48.52,2.22h-2.6q.3,1.2.56,2.42h2.54q.21,1.11.4,2.22h-2.5q.22,1.23.41,2.46H44.4c.1.74.2,1.48.28,2.22H42.23q.14,1.25.25,2.5H44.9c.06.74.1,1.48.14,2.22H42.62q.06,1.26.08,2.51h2.44c0,.74,0,1.48,0,2.22H42.7q0,1.26-.08,2.51Z"/><path class="cls-1" d="M55.49,12.26,29.28.08a.85.85,0,0,0-.72,0L2.13,12.78a.85.85,0,0,0,0,1.52l12,6.15v4c0,3.07,7.68,4.47,14.81,4.47s14.81-1.4,14.81-4.47V20l6.08-3.26.09,7.32A40.53,40.53,0,0,0,46.38,30a.85.85,0,0,0,.82,1.06,15.62,15.62,0,0,0,7.13,0,1,1,0,0,0,.67-.33.85.85,0,0,0,.15-.73,49.57,49.57,0,0,0-3.4-5.88V15.75l3.78-2a.85.85,0,0,0,0-1.52Z"/></svg>