<svg id="Layer_1" data-name="Layer 1" xmlns="http://www.w3.org/2000/svg" viewBox="0 0 57.97 39.55"><defs><style>.cls-1{fill:#fff;}</style></defs><title>sport_icon_hockey</title><path class="cls-1" d="M50.36,3.11C44.69,1.1,37.1,0,29,0S13.28,1.1,7.61,3.11C3,4.74,0,6.93,0,8.7s3,4,7.61,5.6c5.67,2,13.27,3.11,21.38,3.11s15.7-1.1,21.38-3.11C55,12.67,58,10.47,58,8.7S55,4.74,50.36,3.11Z"/><path class="cls-1" d="M29,22.12c-8.63,0-16.78-1.2-22.94-3.37a27.41,27.41,0,0,1-6-2.89v15c0,1.77,3,4,7.61,5.6,5.67,2,13.27,3.1,21.38,3.1s15.7-1.1,21.38-3.1C55,34.82,58,32.62,58,30.85v-15a27.4,27.4,0,0,1-6,2.89C45.76,20.92,37.62,22.12,29,22.12Z"/></svg>