<svg xmlns="http://www.w3.org/2000/svg" viewBox="0 0 600 150"><defs>
<style>.cls-1{fill:#fff;}.cls-2{stroke:#B1744D;stroke-width:1}.cls-3{fill:#E6AB76;}.cls-4{fill:#000}</style>
</defs><title>derby_silk_avatar_cross_of_sash</title>
<g id="background">
  <rect class="cls-3" x="0" y="0" width="600" height="120"/>
  <line class="cls-2" x1="0" x2="600" y1="0" y2="0"/>
  <line class="cls-2" x1="0" x2="600" y1="8" y2="8"/>
  <line class="cls-2" x1="0" x2="600" y1="16" y2="16"/>
  <line class="cls-2" x1="0" x2="600" y1="24" y2="24"/>
  <line class="cls-2" x1="0" x2="600" y1="32" y2="32"/>
  <line class="cls-2" x1="0" x2="600" y1="40" y2="40"/>
  <line class="cls-2" x1="0" x2="600" y1="48" y2="48"/>
  <line class="cls-2" x1="0" x2="600" y1="56" y2="56"/>
  <line class="cls-2" x1="0" x2="600" y1="64" y2="64"/>
  <line class="cls-2" x1="0" x2="600" y1="72" y2="72"/>
  <line class="cls-2" x1="0" x2="600" y1="80" y2="80"/>
  <line class="cls-2" x1="0" x2="600" y1="88" y2="88"/>
  <line class="cls-2" x1="0" x2="600" y1="96" y2="96"/>
  <line class="cls-2" x1="0" x2="600" y1="104" y2="104"/>
  <line class="cls-2" x1="0" x2="600" y1="112" y2="112"/>
  <line class="cls-2" x1="0" x2="600" y1="120" y2="120"/>
  <rect class="cls-1" x="0" y="2.5" width="2" height="5"/>
  <rect class="cls-1" x="0" y="10.5" width="2" height="5"/>
  <rect class="cls-1" x="0" y="18.5" width="2" height="5"/>
  <rect class="cls-1" x="0" y="26.5" width="2" height="5"/>
  <rect class="cls-1" x="0" y="34.5" width="2" height="5"/>
  <rect class="cls-1" x="0" y="42.5" width="2" height="5"/>
  <rect class="cls-1" x="0" y="50.5" width="2" height="5"/>
  <rect class="cls-1" x="0" y="58.5" width="2" height="5"/>
  <rect class="cls-1" x="0" y="66.5" width="2" height="5"/>
  <rect class="cls-1" x="0" y="74.5" width="2" height="5"/>
  <rect class="cls-1" x="0" y="82.5" width="2" height="5"/>
  <rect class="cls-1" x="0" y="90.5" width="2" height="5"/>
  <rect class="cls-1" x="0" y="98.5" width="2" height="5"/>
  <rect class="cls-1" x="0" y="106.5" width="2" height="5"/>
  <rect class="cls-1" x="0" y="114.5" width="2" height="5"/>
  <rect class="cls-1" x="592" y="0" width="8" height="120"/>
  <rect class="cls-4" x="596" y="0" width="4" height="4"/>
  <rect class="cls-4" x="592" y="4" width="4" height="4"/>
  <rect class="cls-4" x="596" y="8" width="4" height="4"/>
  <rect class="cls-4" x="592" y="12" width="4" height="4"/>
  <rect class="cls-4" x="596" y="16" width="4" height="4"/>
  <rect class="cls-4" x="592" y="20" width="4" height="4"/>
  <rect class="cls-4" x="596" y="24" width="4" height="4"/>
  <rect class="cls-4" x="592" y="28" width="4" height="4"/>
  <rect class="cls-4" x="596" y="32" width="4" height="4"/>
  <rect class="cls-4" x="592" y="36" width="4" height="4"/>
  <rect class="cls-4" x="596" y="40" width="4" height="4"/>
  <rect class="cls-4" x="592" y="44" width="4" height="4"/>
  <rect class="cls-4" x="596" y="48" width="4" height="4"/>
  <rect class="cls-4" x="592" y="52" width="4" height="4"/>
  <rect class="cls-4" x="596" y="56" width="4" height="4"/>
  <rect class="cls-4" x="592" y="60" width="4" height="4"/>
  <rect class="cls-4" x="596" y="64" width="4" height="4"/>
  <rect class="cls-4" x="592" y="68" width="4" height="4"/>
  <rect class="cls-4" x="596" y="72" width="4" height="4"/>
  <rect class="cls-4" x="592" y="76" width="4" height="4"/>
  <rect class="cls-4" x="596" y="80" width="4" height="4"/>
  <rect class="cls-4" x="592" y="84" width="4" height="4"/>
  <rect class="cls-4" x="596" y="88" width="4" height="4"/>
  <rect class="cls-4" x="592" y="92" width="4" height="4"/>
  <rect class="cls-4" x="596" y="96" width="4" height="4"/>
  <rect class="cls-4" x="592" y="100" width="4" height="4"/>
  <rect class="cls-4" x="596" y="104" width="4" height="4"/>
  <rect class="cls-4" x="592" y="108" width="4" height="4"/>
  <rect class="cls-4" x="596" y="112" width="4" height="4"/>
  <rect class="cls-4" x="592" y="116" width="4" height="4"/>
</g>
</svg>