<svg id="Layer_1" data-name="Layer 1" xmlns="http://www.w3.org/2000/svg" xmlns:xlink="http://www.w3.org/1999/xlink" viewBox="0 0 1280 630"><defs><style>.cls-1{fill:none;}.cls-2{fill:url(#linear-gradient);}.cls-3{clip-path:url(#clip-path);}.cls-4{fill:#48311a;}.cls-5{fill:#392007;}</style><linearGradient id="linear-gradient" x1="640" y1="628.57" x2="640" y2="3.29" gradientUnits="userSpaceOnUse"><stop offset="0" stop-color="#48311a"/><stop offset="0.57" stop-color="#392007"/></linearGradient><clipPath id="clip-path"><rect class="cls-1" width="1280" height="629.48"/></clipPath></defs><title>derby_homepage_bg_art</title><rect class="cls-2" width="1280" height="629.48"/><g class="cls-3"><path class="cls-4" d="M1016.37,238.56,1248.71,39.34,989.23,198.16l-38.56-57.65a76.24,76.24,0,0,0-7.1,42.08,68.09,68.09,0,0,0,8.53,25.61c-10.26,1.89-23.87,4.56-40,8.23-26.32-4.43-56.45-9.77-56.45-9.77L877.5,225Q869,227.24,860,229.79l-.27.08L818,228.71l18.41,8.18q-10.36,3.26-19.88,6.52H773L789.88,253c-42,15.88-72.1,30.94-103.68,42.83L626,207.58l40.43-43.18L713.85,185l26.63-48.46c18.79,4.89,33.12,5.58,34.71,1,1.22-3.47-5.31-9.24-16.39-15.32.53-1.62,1.06-3.34,1.63-5.18A57.7,57.7,0,1,0,648.6,89.51C618.66,80,569.5,70.83,513,87.22c-80.4,23.35-125,63.4-130.09,97.4A71.23,71.23,0,0,0,389,226c6.78,14.15,43.13,56.49,68,83.7C271.33,304,222.07,310,171.56,337c-28.22,15.08-47.09,31.48-59.68,45.77C70.19,372,36.8,374.34,10.34,381.92c-65.76,18.83-84.66,68.52-161,113.85-52.1,31-104.09,43.9-145.46,49.54,133.24,28.62,199.76,3.1,236-27.9,28.05-24,41-54,86.81-83.06A251.78,251.78,0,0,1,96.21,404a119,119,0,0,0-6.8,13C84.1,429,60.25,476.61,85.8,518.94c19.11,31.68,39.27,45.19,55.69,50.71,11.17,9.11,22.16,18.42,32.64,28.23,11.06,10.35,52.28,30.61,52.28,47.2,17.84,33.13-1.22,73.88,2.71,111.3,6.1,58.22,66,98.54,76.56,156.11,2.51,13.65-11.85,48.33-11.85,48.33l60.52-1.57s9.65-13.81,7.3-21.81-8-14.52-12.9-21.26c-36.08-49.66-34.11-116.44-30.62-177.72,53.5,20.69,90,37.5,138.19,68.63,14.4,9.31,47.76,15,69.4,20.42-1.77,20.24,6.13,29.68,24.5,38.38,13.06-2.45,41.09-12.08,41.09-12.08s0-10.43-7.62-25.48c-14-27.74-108-58.17-165.72-85.79-15.06-7.21-30.72-14.27-42.29-26.32-7.06-7.35-12.27-16.23-17.41-25-12.14-20.76-24.5-42.07-28.74-65.74-3.12-17.42-1.69-35.28-2.13-53a249.79,249.79,0,0,0-3.16-33.86,57.35,57.35,0,0,1,17.82,4.3c26.09,10.84,26.09,10.84,93.72,36.66,32.83,12.53,67,24.7,101.52,33.08a242,242,0,0,0,22.15,27.61c44.91,48,122.69,45.25,177.56,81.48,5.38,3.55,11,8.4,11.14,14.85.09,5.43-3.82,10-7.65,13.88a202.1,202.1,0,0,1-56.73,40.06,76.32,76.32,0,0,0-37.43-24.41,113.44,113.44,0,0,1-36.87,37.34,111.72,111.72,0,0,0,70,11.45c12.18,13.45,35.15,9.92,49.36-1.36s22.73-28,33.82-42.41c9.26-12,20.65-22.77,26.37-36.81,8-19.7,2.54-44.13-13.15-58.5-22.07-20.21-59.53-20.33-76.28-45.14a1121.74,1121.74,0,0,1,112.25,15.92c12.49,2.42,25.07,5.1,36.53,10.62,14.78,7.12,27,18.62,38.16,30.6a411.21,411.21,0,0,1,59.86,82.59c7.47,13.58,17,29.53,32.52,30.1,4.42,14.95-3.07,32.52-16.93,39.66l47.88,31a70.4,70.4,0,0,0,6.4-67.85c-3.35-7.47-8-14.27-12.62-21l-103-150.46c-2.79-4.08-5.79-8.34-10.24-10.5-4.24-2.05-9.16-1.89-13.86-2-40.94-1-76.09-25-111-47.72a267.42,267.42,0,0,0,22.5-21.43c39.41-42.09,37-49.85,98.81-153.39,7.71-12.92,25.77-41,52.08-43.77,6-.63,11.71.83,18,3.11l77.28,28.74-3.63,23.2,46.94,21.61,30.87-49.83L1018,241Z"/><path class="cls-5" d="M818.91,296l-28.28-42.1-40.29-60.25a77.64,77.64,0,0,0-7.23,42.85,69.34,69.34,0,0,0,8.69,26.08c-10.45,1.92-14,2.06-30.43,5.8-26.81-4.52-57.49-9.95-57.49-9.95l22.24,18.66c-5.76,1.53-17.42,4.32-23.52,6.07l-.28.08-47.11.24L634,291.84q-10.56,3.32-20.24,6.64H569.36l17.22,9.76c-46.48,17.59-78.7,34.18-114.07,46.72l-17.31-30.29,41.17-44,48.25,21,27.12-49.36c19.13,5,33.73,5.69,35.35,1.07,1.24-3.54-5.4-9.41-16.69-15.6.54-1.65,1.08-3.4,1.66-5.28a58.76,58.76,0,1,0-113.89-28.13c-30.49-9.73-80.56-19-138.06-2.34-81.88,23.77-127.25,64.56-132.48,99.19a72.54,72.54,0,0,0,6.16,42.1,71.07,71.07,0,0,0,16.5,22c-175-4.89-223.59,1.73-273.43,28.35-28.74,15.36-48,32.06-60.78,46.62-42.46-11-76.46-8.59-103.4-.87-67,19.18-86.21,69.78-163.92,115.94-53.06,31.52-106,44.71-148.14,50.45,135.69,29.14,203.43,3.16,240.3-28.41,28.57-24.46,41.73-55,88.41-84.59A256.41,256.41,0,0,1-119.85,462a121.16,121.16,0,0,0-6.93,13.29c-5.41,12.13-29.69,60.65-3.67,103.76,10.68,17.7,21.68,29.83,32.2,38.1,1.2,1,2.41,1.9,3.64,2.78,15.48,11.11,33.61,18,49.34,28.76,13.16,9,25.14,21.93,26.66,37.79,1.76,18.35-10.63,34.67-21.78,49.35S-62.67,768.36-58,786.21c5.06,19.51,26.15,29.4,44.57,37.59a662.3,662.3,0,0,1,123.14,71.59c7.14,5.25,14.72,11.56,15.95,20.33,1.26,9.07-5.1,17.82-13.12,22.24S95.08,943.4,86,944.33c8.57,7.63,18.22,16,28.82,20.37s23.57,4.78,32.91-1.87c8.76-6.24,12.75-17.55,12.8-28.31s-3.28-21.21-6.58-31.45a609.38,609.38,0,0,1,76.74,54.73l-21.32,29.25,55.6,27.81c14.16-27.14,4.31-61.8-15.56-85.08s-47.91-37.72-75.14-51.69c-20.53-10.54-41.78-21.77-55.44-40.37-19.24-26.21-19.53-61.88-13.37-93.81S123.37,681,125.6,648.59c1.13-16.53-.37-33.58-7.09-48.68a59.51,59.51,0,0,1,12,3.6c26.57,11,26.57,11,95.44,37.34,44.62,17,91.67,33.4,138.76,40.82a123.05,123.05,0,0,1,5.32,21.52c3.7,23.85,1.67,48.15,1.74,72.29s2.5,49.08,14.16,70.21l-90-19.82c-19.35-4.26-39.29-8.78-55.43-20.28s-27.62-31.94-22.59-51.11l-46.6,16.11c4.14,22.64,20.27,41.66,39.42,54.43S252,845.2,273.88,852.46c47.49,15.79,96.39,31.79,146.36,28.94a1328.64,1328.64,0,0,1,37.15-162.21c10.13,21.28,33,33,54.88,41.87s45.36,17,60.55,35A1058.76,1058.76,0,0,1,446.59,905.65l-21.23-19.43-46.46,37.4c11.52,17.83,36.36,23,56.9,17.62s37.82-18.86,54.45-32L570,845.91c20.06-15.92,41.83-35,43.22-60.56,1-19-14.89-36.87-27.72-50.86-24.61-26.84-44.47-51.48-64.22-74,21.91-11.65,43.17-27.8,63.48-49.5,40.13-42.86,37.71-50.77,100.63-156.21,7.85-13.16,26.25-41.8,53-44.58,6.15-.64,11.93.85,18.31,3.17l78.7,29.26-3.7,23.63,47.81,22L911,437.48Z"/></g></svg>