<svg xmlns="http://www.w3.org/2000/svg" viewBox="0 0 72 67.26"><defs><style>.cls-1{fill:#ccc;}.cls-2{fill:#231f20;}</style></defs><title>derby_silk_avatar_cross_of_lorraine</title><g id="background"><path class="cls-1" d="M45,.5V6.15l.25.14L62.62,16.5,71.4,66.76H62.06L54.62,38.66,54,36.25l-.34,2.48L50.08,64.8H21.92L18.36,38.72,18,36.25l-.64,2.42L9.94,66.76H.6L9.38,16.5,26.76,6.29,27,6.15V.5H45m.5-.5h-19V5.86L8.93,16.19,0,67.26H10.33l7.53-28.47L21.49,65.3h29l3.63-26.51,7.53,28.47H72L63.07,16.19,45.49,5.86V0Z"/></g><g id="pattern"><polygon class="cls-2" points="46.18 34.65 39.37 34.65 39.37 27.74 44.22 27.74 44.22 21.01 39.37 21.01 39.37 15.79 32.64 15.79 32.64 21.01 27.79 21.01 27.79 27.74 32.64 27.74 32.64 34.65 25.82 34.65 25.82 41.38 32.64 41.38 32.64 46.61 39.37 46.61 39.37 41.38 46.18 41.38 46.18 34.65"/></g></svg>