<svg xmlns="http://www.w3.org/2000/svg" viewBox="0 0 72 67.26"><defs><style>.cls-1{fill:#ccc;}.cls-2{fill:none;}.cls-3{fill:#231f20;}</style></defs><title>derby_silk_avatar_triangular_panel2</title><g id="background"><path class="cls-1" d="M45,.5V6.15l.25.14L62.62,16.5,71.4,66.76H62.06L54.62,38.66,54,36.25l-.34,2.48L50.08,64.8H21.92L18.36,38.72,18,36.25l-.64,2.42L9.94,66.76H.6L9.38,16.5,26.76,6.29,27,6.15V.5H45m.5-.5h-19V5.86L8.93,16.19,0,67.26H10.33l7.53-28.47L21.49,65.3h29l3.63-26.51,7.53,28.47H72L63.07,16.19,45.49,5.86V0Z"/></g><g id="pattern"><polygon class="cls-2" points="63.07 16.19 45.49 5.86 45.49 0 36 0 26.51 0 26.51 5.86 8.93 16.19 0 67.26 10.33 67.26 17.86 38.79 21.49 65.3 36 65.02 50.51 65.3 54.14 38.79 61.67 67.26 72 67.26 63.07 16.19"/><polygon class="cls-3" points="16.64 28.5 17.97 38.62 36.44 26.89 54.11 38.11 55.45 28 36.44 15.92 16.64 28.5"/></g></svg>