<svg xmlns="http://www.w3.org/2000/svg" viewBox="0 0 72 67.26"><defs><style>.cls-1{fill:#ccc;}.cls-2{fill:#231f20;}.cls-3{fill:#fff;}</style>
</defs><title>derby_silk_avatar_default</title>

<g id="background">
      <polygon id="svg_3"  class="cls-3" points="61.87 67.01 54.06 37.52 50.29 65.05 21.71 65.05 17.94 37.52 10.13 67.01 0.3 67.01 9.16 16.34 26.76 6 26.76 0.25 45.24 0.25 45.24 6 62.84 16.34 71.7 67.01 61.87 67.01"/>
    </g>
<g><polygon class="cls-2" points='18.33 10.66 10.09 15.51 35.52 40.94 61.31 15.15 53.06 10.31 35.52 27.85 18.33 10.66'/></g>    
<g id="background"><path class="cls-1" d="M45,.5V6.15l.25.14L62.62,16.5,71.4,66.76H62.06L54.62,38.66,54,36.25l-.34,2.48L50.08,64.8H21.92L18.36,38.72,18,36.25l-.64,2.42L9.94,66.76H.6L9.38,16.5,26.76,6.29,27,6.15V.5H45m.5-.5h-19V5.86L8.93,16.19,0,67.26H10.33l7.53-28.47L21.49,65.3h29l3.63-26.51,7.53,28.47H72L63.07,16.19,45.49,5.86V0Z"/></g>
</svg>