<?xml version="1.0" encoding="utf-8"?>
<!-- Generator: Adobe Illustrator 21.1.0, SVG Export Plug-In . SVG Version: 6.00 Build 0)  -->
<svg version="1.1" id="Layer_1" xmlns="http://www.w3.org/2000/svg" xmlns:xlink="http://www.w3.org/1999/xlink" x="0px" y="0px"
	 viewBox="0 0 91.7 91.3" style="enable-background:new 0 0 91.7 91.3;" xml:space="preserve">
<style type="text/css">
	.st0{fill:#CCCCCC;}
	.st1{fill:#231F20;}
</style>
<title>Artboard 1</title>
<g id="background">
	<g>
		<path class="st0" d="M77.7,85.4L63,29.6l7.2,4.2l9,51.6H77.7z M6.9,85.4l9-51.6l7.2-4.2L8.4,85.4H6.9z M30.7,83.1l-7.3-53.6
			l14-8.2v-4.6h11.5v4.6l14,8.2l-7.3,53.6H30.7z"/>
		<path class="st0" d="M43.3,22.2v2.2l5.4,3.2l8.1,4.8l-3.2,23.3l-3,21.9H35.5l-3-21.9l-3.2-23.3l8.1-4.8l5.4-3.2v-2.2H43.3
			 M54.3,11.2H31.8v7L11,30.4L0.4,90.9h12.2l8.9-33.8l4.3,31.4h34.4l4.3-31.4l8.9,33.8h12.2L75.2,30.4L54.3,18.2V11.2L54.3,11.2z"/>
	</g>
	<g>
		<path class="st0" d="M68.1,11.3c1.3-1.5,3.1-2.5,5.1-2.9L75.5,8l0.6,0.2c2,0.6,3.8,1.7,5.2,3.2H68.1z"/>
		<path class="st0" d="M74.9,0.2C74.9,0.2,74.8,0.2,74.9,0.2c-1.6,0-2.7,1.3-2.7,2.8c-6.7,1.3-11.6,7-11.9,13.8h31v-2.5L89,13.8
			c-1.7-5.3-6-9.5-11.4-11C77.5,1.4,76.3,0.2,74.9,0.2L74.9,0.2z"/>
	</g>
</g>
<g id="pattern">
	<polygon class="st1" points="18.6,36.2 20.2,47.5 65.7,47.5 67.2,36.2 	"/>
</g>
</svg>
