<svg xmlns="http://www.w3.org/2000/svg" viewBox="0 0 120.83 45.74"><defs><style>.cls-1{fill:#fff;}.cls-2{fill:#ccc;}.cls-3{fill:#231f20;}</style></defs><title>Artboard 1</title><g id="BG"><path class="cls-1" d="M17.39,40.14c5,0,8.92-1.23,11.78-3.65L29.7,36c1.68-1.44,6.51-5.57,9.26-6.28a20.34,20.34,0,0,0,.72,5.38A27.17,27.17,0,0,0,26,44.85l-.65.89H50.87l6.2-4.15a15.74,15.74,0,0,1,2.48-.23,7.32,7.32,0,0,1,2.48.39,30.9,30.9,0,0,0,8.83,1,50.58,50.58,0,0,0,11.3-1.24l7.25,4.23h22.45l-1.2-1.1a27.82,27.82,0,0,0-6.24-4c-3-1.56-5.87-3-7.15-5.7a11.24,11.24,0,0,1-.58-3c1.13-2.66,7.08-9.57,8.76-10.11a1.06,1.06,0,0,1,.33,0,3.74,3.74,0,0,1,.51,0l5.5.8,0,.69.06,1.13,1.11.25,4.15.93,1.29.29.45-1.24,1.63-4.5.33-.9-.68-.68L110.48,9.1l-3-2.84-.12-.12L103.32,2.2,101.45.4l-.63,2.52A7.69,7.69,0,0,0,101,7.26a7.23,7.23,0,0,0,.3.72l-1.19.53h-.78a13.67,13.67,0,0,1-2-.11l-3-.5a4,4,0,0,0-.6-.56A6.26,6.26,0,0,0,82,3.53a21.09,21.09,0,0,0-5-.6,20.4,20.4,0,0,0-5.64.8c-6.7,1.93-11.22,5.44-11.79,9.17A7.32,7.32,0,0,0,60,16.75c-6.5,0-9.48.46-13.42,2.55a19.55,19.55,0,0,0-4.71,3.41,19.09,19.09,0,0,0-4-.44,15.69,15.69,0,0,0-4.28.58c-3.4,1-5.45,2.84-7.63,4.82a33.75,33.75,0,0,1-6,4.62A30.41,30.41,0,0,1,8.56,36.14L0,37.3l8.45,1.8A43.55,43.55,0,0,0,17.39,40.14ZM91.27,10.9A8,8,0,0,0,92.6,11a2.06,2.06,0,0,0,2.14-1.16l1.11.93L90.12,13Zm-6.5,2.36,2.13.92-3.76,1.4-.21-.37Z"/><path class="cls-2" d="M109.43,10.16l-2.95-2.83-4.2-4.05a6.16,6.16,0,0,0,.15,3.48,5.55,5.55,0,0,0,1.13,1.9c-.79.32-1.85.77-3.08,1.34a17.45,17.45,0,0,1-3.35-.11l1.8,1.5-1.44.39s-12.15,4.63-15,5.64L81.07,15l3.33-3.52,3.9,1.69,2.2-4h0c1.53.39,2.7.45,2.83.08S92.92,8.53,92,8l.14-.43a4.66,4.66,0,0,0,.21-1.4,4.76,4.76,0,0,0-9.43-.85,19.32,19.32,0,0,0-11.17-.19C65.13,7.07,61.46,10.34,61,13.12a5.76,5.76,0,0,0,.5,3.37,5.66,5.66,0,0,0,1.34,1.77c-8.73-.07-11.56.23-15.59,2.36a17.28,17.28,0,0,0-4.92,3.74A15.75,15.75,0,0,0,34,24.29c-5.42,1.54-7,5.59-13.26,9.29a31.92,31.92,0,0,1-12,4c11,2.34,16.46.25,19.44-2.28,2.31-2,9.41-8.32,12.4-7a17.64,17.64,0,0,0,1,7.85,25.46,25.46,0,0,0-14.31,9.57H48.18l8.32-5.58a11.89,11.89,0,0,1,6,.17C65.17,41.27,74,41.93,82,40l.53,0,9.82,5.73h17.26c-4.23-3.89-11.25-4.93-13.73-10.11a14,14,0,0,1-.74-3.86c.85-2.54,7.35-10.52,9.82-11.31a3.3,3.3,0,0,1,1.5-.06l6.72,1,.11,1.91,4.15.93,1.63-4.5Z"/></g><g id="Pattern"><path class="cls-3" d="M72.86,28.41l.15.15L85.14,16.44l-2.67,1L81.07,15l3.33-3.52,3.9,1.69,2.2-4h0a11.26,11.26,0,0,0,1.56.3l.86-.86A6.3,6.3,0,0,0,92,8l.14-.43a4.66,4.66,0,0,0,.21-1.4,4.76,4.76,0,0,0-9.43-.85,19.32,19.32,0,0,0-11.17-.19C65.13,7.07,61.46,10.34,61,13.12a5.76,5.76,0,0,0,.5,3.37,5.66,5.66,0,0,0,1.34,1.77H62.4L72.71,28.57Z"/><path class="cls-3" d="M72.86,28.41l-.15.15L61.26,40a7.84,7.84,0,0,1,1.26.32C65.17,41.27,74,41.93,82,40l.53,0,4.58,2.67L73,28.57Z"/></g></svg>