<svg xmlns="http://www.w3.org/2000/svg" viewBox="0 0 122.4 46.33"><defs><style>.cls-1{fill:#ccc;}.cls-2{fill:#231f20;}</style></defs><title>racehorse_diagonal_quartered</title><g id="BG"><path class="cls-1" d="M110.85,10.29l-3-2.87-4.26-4.1a6.24,6.24,0,0,0,.15,3.53,5.62,5.62,0,0,0,1.14,1.92c-.8.33-1.87.78-3.12,1.35a17.67,17.67,0,0,1-3.4-.11l1.82,1.52-1.46.4s-12.31,4.69-15.21,5.71l-1.42-2.46,3.37-3.57,4,1.71,2.22-4h0c1.55.4,2.74.45,2.87.08s-.45-.76-1.37-1.26l.14-.43a4.72,4.72,0,0,0,.22-1.42A4.82,4.82,0,0,0,84,5.43a19.57,19.57,0,0,0-11.32-.19C66,7.16,62.26,10.48,61.83,13.29a5.84,5.84,0,0,0,.5,3.42A5.74,5.74,0,0,0,63.7,18.5c-8.85-.07-11.71.23-15.79,2.39a17.5,17.5,0,0,0-5,3.79,16,16,0,0,0-8.47-.07C29,26.16,27.38,30.27,21,34a32.34,32.34,0,0,1-12.14,4.1c11.12,2.37,16.67.26,19.69-2.31,2.34-2,9.53-8.42,12.56-7.11a17.87,17.87,0,0,0,1,7.95A25.79,25.79,0,0,0,27.6,46.33H48.8l8.43-5.65a12,12,0,0,1,6.1.17c2.68,1,11.61,1.62,19.76-.34l.53,0,9.95,5.8h17.48c-4.28-3.94-11.39-5-13.91-10.24a14.19,14.19,0,0,1-.75-3.91c.87-2.57,7.45-10.66,10-11.46a3.35,3.35,0,0,1,1.52-.06l6.81,1,.11,1.94,4.21.94L120.64,20Z"/></g><g id="Pattern"><path class="cls-2" d="M74.36,29.32,87.49,16.19c-1.71.64-3.17,1.18-4,1.45l-1.42-2.46,3.37-3.57,4,1.71,2.22-4h0A7.87,7.87,0,0,0,94,9.64h0a1.19,1.19,0,0,0,.32-.07l.05,0a.29.29,0,0,0,.16-.15.23.23,0,0,0,0-.12h0a.43.43,0,0,0-.05-.13,3.66,3.66,0,0,0-1.33-1l.14-.43a4.72,4.72,0,0,0,.22-1.42A4.82,4.82,0,0,0,84,5.43a19.57,19.57,0,0,0-11.32-.19C66,7.16,62.26,10.48,61.83,13.29a5.84,5.84,0,0,0,.5,3.42A5.74,5.74,0,0,0,63.7,18.5h-.16Z"/><path class="cls-2" d="M74.36,29.52,63.12,40.79l.21.06c2.68,1,11.61,1.62,19.76-.34l.53,0L87.91,43Z"/></g></svg>