<svg id="BG" xmlns="http://www.w3.org/2000/svg" viewBox="0 0 122.4 46.33"><defs><style>.cls-1{fill:#fff;}.cls-2{fill:#ccc;}.cls-3{fill:#231f20;}</style></defs><title>racehorse_star</title><path class="cls-1" d="M17.62,40.66c5,0,9-1.24,11.93-3.7l.54-.46c1.7-1.46,6.59-5.65,9.38-6.36a20.6,20.6,0,0,0,.73,5.45,27.52,27.52,0,0,0-13.82,9.84l-.66.9H51.52l6.28-4.21a15.94,15.94,0,0,1,2.51-.23,7.42,7.42,0,0,1,2.51.39,31.3,31.3,0,0,0,8.94,1A51.24,51.24,0,0,0,83.21,42l7.35,4.29H113.3l-1.22-1.12a28.18,28.18,0,0,0-6.32-4c-3.06-1.58-6-3.07-7.25-5.77a11.39,11.39,0,0,1-.58-3c1.15-2.7,7.17-9.69,8.88-10.24a1.08,1.08,0,0,1,.33,0,3.79,3.79,0,0,1,.52,0l5.57.81,0,.7.06,1.15,1.12.25,4.21.94,1.3.29.46-1.26,1.65-4.56.33-.91-.69-.68-9.79-9.68-3-2.88-.12-.12-4.13-4L102.77.41,102.13,3a7.79,7.79,0,0,0,.19,4.4,7.32,7.32,0,0,0,.3.73l-1.2.54h-.79a13.84,13.84,0,0,1-2-.11L95.58,8A4,4,0,0,0,95,7.45,6.34,6.34,0,0,0,83,3.58,21.37,21.37,0,0,0,78,3a20.66,20.66,0,0,0-5.71.81c-6.79,2-11.36,5.51-11.94,9.28A7.42,7.42,0,0,0,60.79,17c-6.58,0-9.6.46-13.6,2.58A19.81,19.81,0,0,0,42.42,23a19.34,19.34,0,0,0-4-.45,15.89,15.89,0,0,0-4.34.59c-3.44,1-5.52,2.87-7.72,4.89a34.19,34.19,0,0,1-6.07,4.68,30.81,30.81,0,0,1-11.57,3.9L0,37.78,8.56,39.6A44.12,44.12,0,0,0,17.62,40.66ZM92.45,11a8.11,8.11,0,0,0,1.35.13A2.09,2.09,0,0,0,96,10l1.13.94-5.81,2.2Zm-6.59,2.39,2.16.93-3.81,1.42L84,15.41Z"/><path class="cls-2" d="M110.85,10.29l-3-2.87-4.26-4.1a6.24,6.24,0,0,0,.15,3.53,5.62,5.62,0,0,0,1.14,1.92c-.8.33-1.87.78-3.12,1.35a17.67,17.67,0,0,1-3.4-.11l1.82,1.52-1.46.4s-12.31,4.69-15.21,5.71l-1.42-2.46,3.37-3.57,4,1.71,2.22-4h0c1.55.4,2.74.45,2.87.08s-.45-.76-1.37-1.26l.14-.43a4.72,4.72,0,0,0,.22-1.42A4.82,4.82,0,0,0,84,5.43a19.57,19.57,0,0,0-11.32-.19C66,7.16,62.26,10.48,61.83,13.29a5.84,5.84,0,0,0,.5,3.42A5.74,5.74,0,0,0,63.7,18.5c-8.85-.07-11.71.23-15.79,2.39a17.5,17.5,0,0,0-5,3.79,16,16,0,0,0-8.47-.07C29,26.16,27.38,30.27,21,34a32.34,32.34,0,0,1-12.14,4.1c11.12,2.37,16.67.26,19.69-2.31,2.34-2,9.53-8.42,12.56-7.11a17.87,17.87,0,0,0,1,7.95A25.79,25.79,0,0,0,27.6,46.33H48.8l8.43-5.65a12,12,0,0,1,6.1.17c2.68,1,11.61,1.62,19.76-.34l.53,0,9.95,5.8h17.48c-4.28-3.94-11.39-5-13.91-10.24a14.19,14.19,0,0,1-.75-3.91c.87-2.57,7.45-10.66,10-11.46a3.35,3.35,0,0,1,1.52-.06l6.81,1,.11,1.94,4.21.94L120.64,20Z"/><polygon class="cls-3" points="75.86 32.07 68.96 36.87 71.39 28.83 64.69 23.75 73.1 23.58 75.86 15.64 78.62 23.58 87.02 23.75 80.32 28.83 82.75 36.87 75.86 32.07"/></svg>