<svg id="Layer_1" data-name="Layer 1" xmlns="http://www.w3.org/2000/svg" viewBox="0 0 31.99 26"><defs><style>.cls-1{fill:#ccc;}</style></defs><title>Artboard 1</title><path class="cls-1" d="M10.06,26C22.13,26,28.74,16,28.74,7.32q0-.43,0-.85A13.35,13.35,0,0,0,32,3.08a13.09,13.09,0,0,1-3.77,1A6.59,6.59,0,0,0,31.11.48a13.16,13.16,0,0,1-4.17,1.59,6.57,6.57,0,0,0-11.19,6A18.64,18.64,0,0,1,2.23,1.2a6.57,6.57,0,0,0,2,8.76,6.52,6.52,0,0,1-3-.82s0,.05,0,.08a6.57,6.57,0,0,0,5.27,6.43,6.55,6.55,0,0,1-3,.11,6.57,6.57,0,0,0,6.13,4.56,13.17,13.17,0,0,1-8.15,2.81A13.33,13.33,0,0,1,0,23.05,18.58,18.58,0,0,0,10.06,26"/></svg>