<svg id="Layer_1" data-name="Layer 1" xmlns="http://www.w3.org/2000/svg" viewBox="0 0 86.33 99.42"><defs><style>.cls-1{fill:#fff;}</style></defs><title>Artboard 1</title><circle class="cls-1" cx="31.23" cy="16.37" r="15.87"/><path class="cls-1" d="M33.81,75.06a28.25,28.25,0,0,1,24-27.88,23.22,23.22,0,0,0-19-10H23.65A23.29,23.29,0,0,0,.43,60.4V76.06H33.86C33.84,75.73,33.81,75.4,33.81,75.06Z"/><path class="cls-1" d="M62,51.2A23.86,23.86,0,1,0,85.9,75.06,23.86,23.86,0,0,0,62,51.2ZM74.9,67.56,58,84.51a2.32,2.32,0,0,1-3.28,0L48.4,78.23A2.32,2.32,0,0,1,51.68,75l4.63,4.63,15.3-15.3a2.32,2.32,0,1,1,3.28,3.28Z"/></svg>