<svg id="Layer_1" data-name="Layer 1" xmlns="http://www.w3.org/2000/svg" viewBox="0 0 125 125"><defs><style>.cls-1{fill:#fff;}</style></defs><title>Artboard 1</title><path class="cls-1" d="M80.11,96.85V91.22c0-2,.32-4.14-1.12-5.75-1.86-2.09-4.78-.66-5.69,1.51v-.14c0-1.47.29-3.59-.45-4.94a3.77,3.77,0,0,0-6.08-.67c0-2-.62-3.62-2.67-4.45-2.48-1-5,1.45-5,3.8v1.7a3.43,3.43,0,0,0-5.32-1.59c-1.56,1.11-1.49,2.85-1.49,4.53V99.94l-.57-.54L50.25,98a3.69,3.69,0,0,0-6.08,1.64c-.53,1.5.36,2.86,1.3,3.92l6.19,7L55,114.34l.95,1.08-.9,4.77a11.15,11.15,0,0,0-.35,2A2.31,2.31,0,0,0,57,124.31l11.42,0,5.17,0c2,0,2.78-1.42,2.5-3.22l-1-6.26v-.06c.43-.69.8-1.4,1.16-2.13a35,35,0,0,0,2.15-5.59,37.58,37.58,0,0,0,1.49-9.74A.9.9,0,0,0,80.11,96.85Zm-5,18c-.06-.43.07-.17,0,0Z"/><path class="cls-1" d="M28.15,80.11h5.63c2,0,4.14.32,5.75-1.12,2.09-1.86.66-4.78-1.51-5.69h.14c1.47,0,3.59.29,4.94-.45a3.77,3.77,0,0,0,.67-6.08c2,0,3.62-.62,4.45-2.67,1-2.48-1.45-5-3.8-5h-1.7a3.43,3.43,0,0,0,1.59-5.32c-1.11-1.56-2.85-1.49-4.53-1.49H25.06l.54-.57L27,50.25a3.69,3.69,0,0,0-1.64-6.08c-1.5-.53-2.86.36-3.92,1.3l-7,6.19L10.66,55l-1.08.95L4.82,55a11.15,11.15,0,0,0-2-.35A2.31,2.31,0,0,0,.68,57l0,11.42q0,2.59,0,5.17c0,2,1.42,2.78,3.22,2.5l6.26-1h.06c.69.43,1.4.8,2.13,1.16a35,35,0,0,0,5.59,2.15,37.58,37.58,0,0,0,9.74,1.49A.9.9,0,0,0,28.15,80.11Zm-18-5c.43-.06.17.07,0,0Z"/><path class="cls-1" d="M44.89,28.15v5.63c0,2-.32,4.14,1.12,5.75,1.86,2.09,4.78.66,5.69-1.51v.14c0,1.47-.29,3.59.45,4.94a3.77,3.77,0,0,0,6.08.67c0,2,.62,3.62,2.67,4.45,2.48,1,5-1.45,5-3.8v-1.7a3.43,3.43,0,0,0,5.32,1.59c1.56-1.11,1.49-2.85,1.49-4.53V25.06l.57.54L74.75,27a3.69,3.69,0,0,0,6.08-1.64c.53-1.5-.36-2.86-1.3-3.92l-6.19-7L70,10.66l-.95-1.08L70,4.82a11.15,11.15,0,0,0,.35-2A2.31,2.31,0,0,0,68,.69L56.54.64l-5.17,0c-2,0-2.78,1.42-2.5,3.22l1,6.26v.06c-.43.69-.8,1.4-1.16,2.13a35,35,0,0,0-2.15,5.59,37.58,37.58,0,0,0-1.49,9.74A.9.9,0,0,0,44.89,28.15Zm5-18c.06.43-.07.17,0,0Z"/><path class="cls-1" d="M96.85,44.89H91.22c-2,0-4.14-.32-5.75,1.12-2.09,1.86-.66,4.78,1.51,5.69h-.14c-1.47,0-3.59-.29-4.94.45a3.77,3.77,0,0,0-.67,6.08c-2,0-3.62.62-4.45,2.67-1,2.48,1.45,5,3.8,5h1.7a3.43,3.43,0,0,0-1.59,5.32c1.11,1.56,2.85,1.49,4.53,1.49H99.94l-.54.57L98,74.75a3.69,3.69,0,0,0,1.64,6.08c1.5.53,2.86-.36,3.92-1.3l7-6.19L114.34,70l1.08-.95,4.77.9a11.15,11.15,0,0,0,2,.35A2.31,2.31,0,0,0,124.31,68l0-11.42q0-2.59,0-5.17c0-2-1.42-2.78-3.22-2.5l-6.26,1h-.06c-.69-.43-1.4-.8-2.13-1.16a35,35,0,0,0-5.59-2.15,37.58,37.58,0,0,0-9.74-1.49A.9.9,0,0,0,96.85,44.89Zm18,5c-.43.06-.17-.07,0,0Z"/></svg>