<svg id="Layer_1" data-name="Layer 1" xmlns="http://www.w3.org/2000/svg" viewBox="0 0 113 71"><defs><style>.cls-1{fill:#fff;}</style></defs><title>Artboard 1</title><circle class="cls-1" cx="56.73" cy="21.75" r="12.92"/><path class="cls-1" d="M43.88,37a17,17,0,0,0-15.19-9.43H17.57a17.06,17.06,0,0,0-17,17V56H28.94A21.72,21.72,0,0,1,43.88,37Z"/><circle class="cls-1" cx="23.13" cy="12.28" r="11.62"/><path class="cls-1" d="M95.43,27.53H84.32a17,17,0,0,0-15.13,9.3A21.72,21.72,0,0,1,84.52,56h27.92V44.53A17.06,17.06,0,0,0,95.43,27.53Z"/><circle class="cls-1" cx="89.88" cy="12.28" r="11.62"/><path class="cls-1" d="M62.9,38.69a19,19,0,0,1,18.9,18.9V70.33H31.66V57.59a19,19,0,0,1,18.9-18.9H62.9m0-2.8"/></svg>