<svg id="Layer_1" data-name="Layer 1" xmlns="http://www.w3.org/2000/svg" viewBox="0 0 86 89"><defs><style>.cls-1{fill:#fff;}</style></defs><title>Artboard 1</title><path class="cls-1" d="M43,.44h0Z"/><path class="cls-1" d="M84.89,10.33a2.67,2.67,0,0,0-2-.89H74.43c0-.43.1-.88.15-1.3.08-.72.14-1.32.18-1.71,0,0-4.58-6-31.64-6s-31.64,6-31.64,6c0,.39.1,1,.18,1.71,0,.42.1.87.15,1.3H3.11a2.68,2.68,0,0,0-2.66,3,50.87,50.87,0,0,0,13.07,29A56.55,56.55,0,0,0,25.9,50.82,40.77,40.77,0,0,0,39.55,63.35v19H24.76a2.68,2.68,0,0,0,0,5.35H61.48a2.68,2.68,0,0,0,0-5.35H46.69v-19A40.91,40.91,0,0,0,60.52,50.56a55.73,55.73,0,0,0,12-9.13,50.9,50.9,0,0,0,13.07-29A2.68,2.68,0,0,0,84.89,10.33ZM17.42,37.78a45,45,0,0,1-11.24-23h6.33a96.17,96.17,0,0,0,5.6,21.32q.78,2,1.62,3.87A31.31,31.31,0,0,1,17.42,37.78Zm51.15,0c-.59.63-1.24,1.26-1.92,1.87.5-1.13,1-2.3,1.48-3.53a96.17,96.17,0,0,0,5.6-21.32h6.08A45,45,0,0,1,68.58,37.78Z"/></svg>